<svg xmlns="http://www.w3.org/2000/svg" width="135" height="26" viewBox="0 0 135 26" fill="none">
  <path d="M38.4512 20.0909V6.88412H39.929L45.8403 14.0814H45.0169L50.9071 6.88412H52.3849V20.0909H50.696V8.79867L51.2449 8.97594L45.4603 16.0137H45.3758L39.6123 8.97594L40.1401 8.79867V20.0909H38.4512Z" fill="#141624"/>
  <path d="M61.0183 20.3037C59.9627 20.3037 59.0056 20.0909 58.1471 19.6655C57.3026 19.2282 56.6341 18.6314 56.1414 17.875C55.6488 17.1187 55.4025 16.2618 55.4025 15.3046C55.4025 14.3473 55.6418 13.5023 56.1203 12.7696C56.5989 12.025 57.2463 11.44 58.0626 11.0146C58.893 10.5891 59.8219 10.3764 60.8494 10.3764C61.6657 10.3764 62.3905 10.5064 63.0239 10.7664C63.6713 11.0146 64.2202 11.3573 64.6706 11.7946C65.121 12.22 65.4658 12.7046 65.705 13.2482C65.9443 13.78 66.0639 14.3296 66.0639 14.8968C66.0639 15.015 66.0569 15.1509 66.0428 15.3046C66.0288 15.4464 66.0076 15.5941 65.9795 15.7478H56.4159V14.5068H65.0717L64.3117 15.0387C64.4383 14.3887 64.3469 13.8096 64.0372 13.3014C63.7417 12.7814 63.3124 12.3737 62.7494 12.0782C62.1864 11.7709 61.5531 11.6173 60.8494 11.6173C60.1456 11.6173 59.4912 11.7709 58.886 12.0782C58.2948 12.3855 57.8304 12.8168 57.4926 13.3723C57.1548 13.9159 57.0211 14.5659 57.0915 15.3223C57.0211 16.0787 57.1618 16.7405 57.5137 17.3078C57.8796 17.8632 58.3723 18.2946 58.9915 18.6018C59.6249 18.9091 60.3005 19.0628 61.0183 19.0628C61.8486 19.0628 62.5453 18.8973 63.1083 18.5664C63.6713 18.2355 64.1287 17.8218 64.4806 17.3255L65.8317 17.9282C65.6065 18.3537 65.2617 18.7496 64.7972 19.1159C64.3328 19.4705 63.7768 19.76 63.1294 19.9846C62.4961 20.1973 61.7923 20.3037 61.0183 20.3037Z" fill="#141624"/>
  <path d="M73.1835 20.1973C72.1702 20.1973 71.389 19.9491 70.8401 19.4528C70.2912 18.9564 70.0168 18.2473 70.0168 17.3255V11.9187H67.9267V10.5891H68.4545C68.933 10.5891 69.3131 10.4591 69.5945 10.1991C69.876 9.9273 70.0168 9.59049 70.0168 9.18867V8.39094H71.6002V10.5891H74.0913V11.9187H71.6002V17.3255C71.6002 17.6446 71.6565 17.9282 71.7691 18.1764C71.8816 18.4128 72.0716 18.6018 72.3391 18.7437C72.6206 18.8855 72.9935 18.9564 73.458 18.9564C73.5706 18.9564 73.7043 18.9505 73.8591 18.9387C74.0139 18.9269 74.1476 18.915 74.2602 18.9032V20.0909C74.0913 20.1264 73.9013 20.15 73.6902 20.1618C73.4791 20.1855 73.3102 20.1973 73.1835 20.1973Z" fill="#141624"/>
  <path d="M80.1067 20.3037C79.3889 20.3037 78.7485 20.1914 78.1855 19.9668C77.6225 19.7305 77.1792 19.4114 76.8555 19.0096C76.5318 18.6078 76.3699 18.1469 76.3699 17.6269C76.3699 17.1305 76.4966 16.6814 76.7499 16.2796C77.0033 15.8659 77.3973 15.5173 77.9322 15.2337C78.467 14.95 79.1496 14.7491 79.98 14.6309L84.4135 14.0105V15.2159L80.36 15.7832C79.5437 15.9014 78.9526 16.12 78.5866 16.4391C78.2348 16.7582 78.0588 17.1364 78.0588 17.5737C78.0588 17.9991 78.2559 18.3596 78.65 18.655C79.0581 18.9505 79.5789 19.0982 80.2122 19.0982C80.9863 19.0982 81.6619 18.9623 82.239 18.6905C82.816 18.4068 83.2664 18.0287 83.5901 17.5559C83.9138 17.0832 84.0757 16.5573 84.0757 15.9782V13.5673C84.0757 13 83.8294 12.5391 83.3368 12.1846C82.8442 11.83 82.2038 11.6528 81.4156 11.6528C80.726 11.6528 80.1208 11.8005 79.6 12.0959C79.0792 12.3796 78.6922 12.7518 78.4389 13.2128L77.0033 12.5568C77.2144 12.155 77.5451 11.7887 77.9955 11.4578C78.46 11.1268 78.9878 10.8668 79.5789 10.6778C80.17 10.4768 80.7823 10.3764 81.4156 10.3764C82.246 10.3764 82.9779 10.5123 83.6112 10.7841C84.2586 11.0559 84.7583 11.4341 85.1102 11.9187C85.4761 12.3914 85.6591 12.9409 85.6591 13.5673V20.0909H84.0757V18.1941L84.3079 18.3891C84.1109 18.7437 83.8012 19.0687 83.379 19.3641C82.9708 19.6478 82.4853 19.8782 81.9223 20.0555C81.3734 20.2209 80.7682 20.3037 80.1067 20.3037Z" fill="#141624"/>
  <path d="M90.0625 20.0909V6.88411H96.7127C97.7964 6.88411 98.7253 7.03775 99.4994 7.34502C100.274 7.6523 100.865 8.09548 101.273 8.67457C101.681 9.24184 101.885 9.93321 101.885 10.7487C101.885 11.3278 101.695 11.8832 101.315 12.415C100.935 12.935 100.309 13.3723 99.4361 13.7268V12.3796C100.266 12.6514 100.907 12.9764 101.357 13.3546C101.808 13.7328 102.117 14.1464 102.286 14.5955C102.455 15.0328 102.54 15.4937 102.54 15.9782C102.54 17.2782 102.026 18.2887 100.998 19.0096C99.9709 19.7305 98.5424 20.0909 96.7127 20.0909H90.0625ZM93.3348 17.6978H97.0927C97.7542 17.6978 98.282 17.5382 98.6761 17.2191C99.0702 16.9 99.2672 16.4864 99.2672 15.9782C99.2672 15.4582 99.0702 15.0387 98.6761 14.7196C98.282 14.4005 97.7542 14.2409 97.0927 14.2409H93.3348V17.6978ZM93.3348 11.8478H96.9449C97.4516 11.8478 97.8527 11.7296 98.1483 11.4932C98.4579 11.245 98.6127 10.92 98.6127 10.5182C98.6127 10.1164 98.4579 9.7973 98.1483 9.56093C97.8527 9.31275 97.4516 9.18866 96.9449 9.18866H93.3348V11.8478Z" fill="#141624"/>
  <path d="M104.406 20.0909V6.67139H107.573V20.0909H104.406Z" fill="#141624"/>
  <path d="M115.612 20.3037C114.472 20.3037 113.43 20.085 112.487 19.6478C111.558 19.2105 110.812 18.6137 110.249 17.8573C109.7 17.0891 109.426 16.2205 109.426 15.2514C109.426 14.2705 109.7 13.4018 110.249 12.6455C110.812 11.8891 111.558 11.2923 112.487 10.855C113.43 10.4178 114.472 10.1991 115.612 10.1991C116.752 10.1991 117.786 10.4178 118.715 10.855C119.644 11.2923 120.383 11.8891 120.932 12.6455C121.495 13.4018 121.776 14.2705 121.776 15.2514C121.776 16.2205 121.495 17.0891 120.932 17.8573C120.383 18.6137 119.644 19.2105 118.715 19.6478C117.786 20.085 116.752 20.3037 115.612 20.3037ZM115.612 17.9105C116.189 17.9105 116.688 17.7982 117.111 17.5737C117.547 17.3491 117.885 17.0359 118.124 16.6341C118.377 16.2323 118.504 15.7714 118.504 15.2514C118.504 14.7314 118.377 14.2764 118.124 13.8864C117.885 13.4846 117.547 13.1714 117.111 12.9468C116.688 12.7105 116.189 12.5923 115.612 12.5923C115.035 12.5923 114.528 12.7105 114.092 12.9468C113.655 13.1714 113.311 13.4846 113.057 13.8864C112.818 14.2764 112.698 14.7314 112.698 15.2514C112.698 15.7714 112.818 16.2323 113.057 16.6341C113.311 17.0359 113.655 17.3491 114.092 17.5737C114.528 17.7982 115.035 17.9105 115.612 17.9105Z" fill="#141624"/>
  <path d="M129.3 23.9909C128.413 23.9909 127.59 23.8668 126.83 23.6187C126.07 23.3705 125.415 23.0218 124.866 22.5728C124.332 22.1355 123.945 21.6155 123.705 21.0128L126.64 20.1441C126.795 20.5932 127.111 20.9478 127.59 21.2078C128.068 21.4678 128.638 21.5978 129.3 21.5978C129.821 21.5978 130.271 21.515 130.651 21.3496C131.031 21.1959 131.32 20.9655 131.517 20.6582C131.728 20.3509 131.833 19.9905 131.833 19.5768V17.3609L132.446 17.9991C132.051 18.5428 131.545 18.9505 130.925 19.2223C130.306 19.4823 129.581 19.6123 128.751 19.6123C127.681 19.6123 126.724 19.4114 125.88 19.0096C125.035 18.5959 124.374 18.0346 123.895 17.3255C123.417 16.6046 123.178 15.7891 123.178 14.8791C123.178 13.9691 123.417 13.1655 123.895 12.4682C124.374 11.7591 125.028 11.2037 125.859 10.8018C126.689 10.4 127.632 10.1991 128.688 10.1991C129.518 10.1991 130.243 10.3409 130.862 10.6246C131.481 10.8964 132.009 11.3159 132.446 11.8832L132.044 12.5214V10.4118H135V19.5768C135 20.4278 134.754 21.1841 134.261 21.8459C133.769 22.5196 133.093 23.0455 132.234 23.4237C131.39 23.8018 130.412 23.9909 129.3 23.9909ZM129.194 17.2014C129.729 17.2014 130.194 17.1068 130.588 16.9178C130.982 16.7287 131.284 16.4628 131.496 16.12C131.721 15.7773 131.833 15.3755 131.833 14.9146C131.833 14.4537 131.721 14.0518 131.496 13.7091C131.27 13.3546 130.961 13.0828 130.567 12.8937C130.173 12.6928 129.715 12.5923 129.194 12.5923C128.66 12.5923 128.181 12.6928 127.759 12.8937C127.351 13.0828 127.027 13.3546 126.788 13.7091C126.562 14.0518 126.45 14.4537 126.45 14.9146C126.45 15.3637 126.562 15.7596 126.788 16.1023C127.027 16.445 127.351 16.7168 127.759 16.9178C128.181 17.1068 128.66 17.2014 129.194 17.2014Z" fill="#141624"/>
  <path d="M15.3797 26C23.8737 26 30.7595 20.1797 30.7595 13C30.7595 5.8203 23.8737 0 15.3797 0C6.88575 0 0 5.8203 0 13C0 15.9987 1.20114 18.7602 3.21892 20.9596L6.60948 10.1327C8.0203 5.43359 11.685 3.00246 17.5685 3.00246H19.5972C23.7348 3.00246 26.7736 6.28555 25.778 9.68014C25.5995 10.289 25.2657 10.8575 24.8001 11.3459L23.0735 13.157C22.6304 13.6217 22.4688 14.2344 22.6364 14.8143L23.1627 16.6355C23.4351 17.5782 23.3854 18.5669 23.0192 19.4865C21.7736 22.6151 18.3042 24.7224 14.399 24.7224H8.72256C10.737 25.5412 12.995 26 15.3797 26Z" fill="#141624"/>
  <path fill-rule="evenodd" clip-rule="evenodd" d="M15.1234 15.715H12.1271C11.1714 15.715 10.3359 16.2597 10.0933 17.0411L8.91799 20.8256H13.5607C15.2782 20.8256 16.7796 19.8466 17.2157 18.4424L17.3164 18.118C17.6937 16.9031 16.6095 15.715 15.1234 15.715ZM14.2387 16.8649H12.6106C12.0651 16.8649 11.588 17.1755 11.4488 17.6213L10.8074 19.6757H13.3746C14.3243 19.6757 15.1545 19.1372 15.3957 18.365L15.4514 18.1865C15.66 17.5183 15.0604 16.8649 14.2387 16.8649Z" fill="#141624"/>
  <path fill-rule="evenodd" clip-rule="evenodd" d="M12.814 8.48087C13.0567 7.69954 13.8921 7.15479 14.8478 7.15479H17.8442C19.3302 7.15479 20.4145 8.34291 20.0372 9.55784L19.9364 9.88223C19.5004 11.2864 17.9989 12.2654 16.2814 12.2654H11.6387L12.814 8.48087ZM14.1695 9.06113C14.3087 8.61529 14.7858 8.30467 15.3313 8.30467H16.9595C17.7812 8.30467 18.3807 8.95814 18.1721 9.62634L18.1164 9.80476C17.8753 10.577 17.045 11.1155 16.0954 11.1155H13.5281L14.1695 9.06113Z" fill="#141624"/>
</svg>